<mxfile host="app.diagrams.net" agent="Mozilla/5.0 (Windows NT 10.0; Win64; x64) AppleWebKit/537.36 (KHTML, like Gecko) Chrome/127.0.0.0 Safari/537.36 OPR/113.0.0.0" version="24.7.14">
  <diagram name="Página-1" id="Gij_JTxeonBNuMZZvVwT">
    <mxGraphModel dx="1836" dy="539" grid="1" gridSize="10" guides="1" tooltips="1" connect="1" arrows="1" fold="1" page="1" pageScale="1" pageWidth="827" pageHeight="1169" math="0" shadow="0">
      <root>
        <mxCell id="0" />
        <mxCell id="1" parent="0" />
        <mxCell id="IZ51NU9GsoFc53sjroqQ-3" value="" style="group" vertex="1" connectable="0" parent="1">
          <mxGeometry x="110" y="200" width="120" height="80" as="geometry" />
        </mxCell>
        <mxCell id="IZ51NU9GsoFc53sjroqQ-28" value="" style="group" vertex="1" connectable="0" parent="IZ51NU9GsoFc53sjroqQ-3">
          <mxGeometry width="120" height="80" as="geometry" />
        </mxCell>
        <mxCell id="IZ51NU9GsoFc53sjroqQ-1" value="" style="ellipse;whiteSpace=wrap;html=1;" vertex="1" parent="IZ51NU9GsoFc53sjroqQ-28">
          <mxGeometry width="120" height="80" as="geometry" />
        </mxCell>
        <mxCell id="IZ51NU9GsoFc53sjroqQ-2" value="Menu&lt;br&gt;Principal" style="text;html=1;align=center;verticalAlign=middle;whiteSpace=wrap;rounded=0;" vertex="1" parent="IZ51NU9GsoFc53sjroqQ-28">
          <mxGeometry x="30" y="25" width="60" height="30" as="geometry" />
        </mxCell>
        <mxCell id="IZ51NU9GsoFc53sjroqQ-9" value="" style="group" vertex="1" connectable="0" parent="1">
          <mxGeometry x="390" y="20" width="120" height="80" as="geometry" />
        </mxCell>
        <mxCell id="IZ51NU9GsoFc53sjroqQ-27" value="" style="group" vertex="1" connectable="0" parent="IZ51NU9GsoFc53sjroqQ-9">
          <mxGeometry width="120" height="80" as="geometry" />
        </mxCell>
        <mxCell id="IZ51NU9GsoFc53sjroqQ-10" value="" style="ellipse;whiteSpace=wrap;html=1;" vertex="1" parent="IZ51NU9GsoFc53sjroqQ-27">
          <mxGeometry width="120" height="80" as="geometry" />
        </mxCell>
        <mxCell id="IZ51NU9GsoFc53sjroqQ-11" value="Menu Cadastro Agencia" style="text;html=1;align=center;verticalAlign=middle;whiteSpace=wrap;rounded=0;" vertex="1" parent="IZ51NU9GsoFc53sjroqQ-27">
          <mxGeometry x="30" y="25" width="60" height="30" as="geometry" />
        </mxCell>
        <mxCell id="IZ51NU9GsoFc53sjroqQ-12" value="" style="group" vertex="1" connectable="0" parent="1">
          <mxGeometry x="390" y="110" width="120" height="80" as="geometry" />
        </mxCell>
        <mxCell id="IZ51NU9GsoFc53sjroqQ-26" value="" style="group" vertex="1" connectable="0" parent="IZ51NU9GsoFc53sjroqQ-12">
          <mxGeometry width="120" height="80" as="geometry" />
        </mxCell>
        <mxCell id="IZ51NU9GsoFc53sjroqQ-13" value="" style="ellipse;whiteSpace=wrap;html=1;" vertex="1" parent="IZ51NU9GsoFc53sjroqQ-26">
          <mxGeometry width="120" height="80" as="geometry" />
        </mxCell>
        <mxCell id="IZ51NU9GsoFc53sjroqQ-14" value="Menu Cadastro&lt;div&gt;Veículo&lt;/div&gt;" style="text;html=1;align=center;verticalAlign=middle;whiteSpace=wrap;rounded=0;" vertex="1" parent="IZ51NU9GsoFc53sjroqQ-26">
          <mxGeometry x="30" y="25" width="60" height="30" as="geometry" />
        </mxCell>
        <mxCell id="IZ51NU9GsoFc53sjroqQ-17" style="edgeStyle=orthogonalEdgeStyle;rounded=0;orthogonalLoop=1;jettySize=auto;html=1;exitX=1;exitY=0.5;exitDx=0;exitDy=0;entryX=0;entryY=0.5;entryDx=0;entryDy=0;" edge="1" parent="1" source="IZ51NU9GsoFc53sjroqQ-1" target="IZ51NU9GsoFc53sjroqQ-10">
          <mxGeometry relative="1" as="geometry" />
        </mxCell>
        <mxCell id="IZ51NU9GsoFc53sjroqQ-18" style="edgeStyle=orthogonalEdgeStyle;rounded=0;orthogonalLoop=1;jettySize=auto;html=1;exitX=1;exitY=0.5;exitDx=0;exitDy=0;entryX=0;entryY=0.5;entryDx=0;entryDy=0;" edge="1" parent="1" source="IZ51NU9GsoFc53sjroqQ-1" target="IZ51NU9GsoFc53sjroqQ-13">
          <mxGeometry relative="1" as="geometry" />
        </mxCell>
        <mxCell id="IZ51NU9GsoFc53sjroqQ-19" value="&lt;i&gt;Login/Senha&lt;/i&gt;" style="text;html=1;align=center;verticalAlign=middle;whiteSpace=wrap;rounded=0;" vertex="1" parent="1">
          <mxGeometry x="140" y="285" width="60" height="30" as="geometry" />
        </mxCell>
        <mxCell id="IZ51NU9GsoFc53sjroqQ-31" style="edgeStyle=orthogonalEdgeStyle;rounded=0;orthogonalLoop=1;jettySize=auto;html=1;exitX=0.5;exitY=0.5;exitDx=0;exitDy=0;exitPerimeter=0;entryX=0;entryY=0.5;entryDx=0;entryDy=0;" edge="1" parent="1" source="IZ51NU9GsoFc53sjroqQ-29" target="IZ51NU9GsoFc53sjroqQ-1">
          <mxGeometry relative="1" as="geometry" />
        </mxCell>
        <mxCell id="IZ51NU9GsoFc53sjroqQ-49" style="edgeStyle=orthogonalEdgeStyle;rounded=0;orthogonalLoop=1;jettySize=auto;html=1;exitX=0.5;exitY=0.5;exitDx=0;exitDy=0;exitPerimeter=0;entryX=0;entryY=0.5;entryDx=0;entryDy=0;" edge="1" parent="1" source="IZ51NU9GsoFc53sjroqQ-33" target="IZ51NU9GsoFc53sjroqQ-1">
          <mxGeometry relative="1" as="geometry" />
        </mxCell>
        <mxCell id="IZ51NU9GsoFc53sjroqQ-33" value="Cliente" style="shape=umlActor;verticalLabelPosition=bottom;verticalAlign=top;html=1;outlineConnect=0;" vertex="1" parent="1">
          <mxGeometry x="-57.5" y="270" width="30" height="60" as="geometry" />
        </mxCell>
        <mxCell id="IZ51NU9GsoFc53sjroqQ-38" value="" style="group" vertex="1" connectable="0" parent="1">
          <mxGeometry x="390" y="200" width="120" height="80" as="geometry" />
        </mxCell>
        <mxCell id="IZ51NU9GsoFc53sjroqQ-36" value="" style="ellipse;whiteSpace=wrap;html=1;" vertex="1" parent="IZ51NU9GsoFc53sjroqQ-38">
          <mxGeometry width="120" height="80" as="geometry" />
        </mxCell>
        <mxCell id="IZ51NU9GsoFc53sjroqQ-37" value="Menu Cadastro Funcionario" style="text;html=1;align=center;verticalAlign=middle;whiteSpace=wrap;rounded=0;" vertex="1" parent="IZ51NU9GsoFc53sjroqQ-38">
          <mxGeometry x="30" y="25" width="60" height="30" as="geometry" />
        </mxCell>
        <mxCell id="IZ51NU9GsoFc53sjroqQ-39" style="edgeStyle=orthogonalEdgeStyle;rounded=0;orthogonalLoop=1;jettySize=auto;html=1;exitX=1;exitY=0.5;exitDx=0;exitDy=0;entryX=0;entryY=0.5;entryDx=0;entryDy=0;" edge="1" parent="1" source="IZ51NU9GsoFc53sjroqQ-1" target="IZ51NU9GsoFc53sjroqQ-36">
          <mxGeometry relative="1" as="geometry" />
        </mxCell>
        <mxCell id="IZ51NU9GsoFc53sjroqQ-43" value="" style="ellipse;whiteSpace=wrap;html=1;" vertex="1" parent="1">
          <mxGeometry x="390" y="380" width="120" height="80" as="geometry" />
        </mxCell>
        <mxCell id="IZ51NU9GsoFc53sjroqQ-44" value="" style="ellipse;whiteSpace=wrap;html=1;" vertex="1" parent="1">
          <mxGeometry x="390" y="470" width="120" height="80" as="geometry" />
        </mxCell>
        <mxCell id="IZ51NU9GsoFc53sjroqQ-45" value="" style="group" vertex="1" connectable="0" parent="1">
          <mxGeometry x="-100" y="120" width="115" height="100" as="geometry" />
        </mxCell>
        <mxCell id="IZ51NU9GsoFc53sjroqQ-29" value="Funcionario" style="shape=umlActor;verticalLabelPosition=bottom;verticalAlign=top;html=1;outlineConnect=0;" vertex="1" parent="IZ51NU9GsoFc53sjroqQ-45">
          <mxGeometry x="42.5" y="40" width="30" height="60" as="geometry" />
        </mxCell>
        <mxCell id="IZ51NU9GsoFc53sjroqQ-32" value="(Login Pre-Definido)" style="text;html=1;align=center;verticalAlign=middle;whiteSpace=wrap;rounded=0;" vertex="1" parent="IZ51NU9GsoFc53sjroqQ-45">
          <mxGeometry width="115" height="30" as="geometry" />
        </mxCell>
        <mxCell id="IZ51NU9GsoFc53sjroqQ-46" value="&lt;div&gt;&lt;b&gt;^&lt;/b&gt;&lt;/div&gt;&lt;b&gt;Menu Funcionário&lt;/b&gt;" style="text;html=1;align=center;verticalAlign=middle;whiteSpace=wrap;rounded=0;fillColor=#ffe6cc;strokeColor=#d79b00;" vertex="1" parent="1">
          <mxGeometry x="510" y="270" width="100" height="50" as="geometry" />
        </mxCell>
        <mxCell id="IZ51NU9GsoFc53sjroqQ-47" value="&lt;b&gt;Menu&lt;br&gt;Cliente&lt;/b&gt;&lt;div&gt;&lt;/div&gt;&lt;div&gt;&lt;b&gt;v&lt;/b&gt;&lt;/div&gt;" style="text;html=1;align=center;verticalAlign=middle;whiteSpace=wrap;rounded=0;fillColor=#dae8fc;strokeColor=#6c8ebf;" vertex="1" parent="1">
          <mxGeometry x="510" y="330" width="100" height="50" as="geometry" />
        </mxCell>
        <mxCell id="IZ51NU9GsoFc53sjroqQ-48" value="Menu Veículos Disponiveis" style="text;html=1;align=center;verticalAlign=middle;whiteSpace=wrap;rounded=0;" vertex="1" parent="1">
          <mxGeometry x="420" y="405" width="60" height="30" as="geometry" />
        </mxCell>
        <mxCell id="IZ51NU9GsoFc53sjroqQ-50" value="&lt;i&gt;Create account&lt;/i&gt;" style="text;html=1;align=center;verticalAlign=middle;whiteSpace=wrap;rounded=0;" vertex="1" parent="1">
          <mxGeometry x="125" y="310" width="90" height="30" as="geometry" />
        </mxCell>
      </root>
    </mxGraphModel>
  </diagram>
</mxfile>
